<svg xmlns="http://www.w3.org/2000/svg" width="24" height="24" viewBox="0 0 24 24">
  <rect x="0" y="0" width="24" height="24" fill="#FFFFFF" />
  <path d="M17.301,4.192l2.803,2.804c0.389,0.389,0.389,1.02,0,1.408l-7.495,7.495c-0.195,0.195-0.452,0.293-0.707,0.293s-0.512-0.098-0.707-0.293l-2.281-2.281c-0.195-0.195-0.293-0.452-0.293-0.707s0.098-0.512,0.293-0.707l7.495-7.495C16.282,3.804,16.912,3.804,17.301,4.192z M14.007,7.486l-2.502-2.502l-0.847,0.847l2.502,2.502L14.007,7.486z M4,19.5V4.5C4,3.671,4.671,3,5.5,3h13c0.828,0,1.5,0.671,1.5,1.5v15c0,0.828-0.672,1.5-1.5,1.5h-13C4.671,21,4,20.328,4,19.5z M6.5,18h11v-1.5h-11V18z M6.5,15h11v-1.5h-11V15z M6.5,12h11v-1.5h-11V12z" fill="#FFA500"/>
</svg>
