<svg xmlns="http://www.w3.org/2000/svg" width="24" height="24" viewBox="0 0 24 24">
    <rect x="0" y="0" width="24" height="24" fill="#FFFFFF" />
    <path d="M21.5 2h-19c-1.38 0-2.5 1.12-2.5 2.5v15c0 1.38 1.12 2.5 2.5 2.5h19c1.38 0 2.5-1.12 2.5-2.5v-15c0-1.38-1.12-2.5-2.5-2.5zm-19 2h19c.276 0 .5.224.5.5v9.38l-4.91-4.91c-.195-.195-.451-.293-.707-.293-.256 0-.512.098-.707.293l-6.298 6.298-2.586-2.586c-.391-.391-1.023-.391-1.414 0l-4.586 4.586v-12.586c0-.276.224-.5.5-.5zm19 15h-19c-.276 0-.5-.224-.5-.5v-11.23l6.298 6.298c.195.195.451.293.707.293.256 0 .512-.098.707-.293l2.586-2.586 4.91 4.91v2.91c0 .276-.224.5-.5.5z" fill="#6FC3DF"/>
  </svg>
  